<?xml version="1.0" encoding="utf-8"?>
<!-- Generator: Adobe Illustrator 15.1.0, SVG Export Plug-In . SVG Version: 6.00 Build 0)  -->
<!DOCTYPE svg PUBLIC "-//W3C//DTD SVG 1.1//EN" "http://www.w3.org/Graphics/SVG/1.1/DTD/svg11.dtd">
<svg version="1.1" xmlns="http://www.w3.org/2000/svg" xmlns:xlink="http://www.w3.org/1999/xlink" x="0px" y="0px" width="180px"
	 height="177px" viewBox="0 0 180 177" enable-background="new 0 0 180 177" xml:space="preserve">
<g id="圖層_6">
	<g>
		<path fill-rule="evenodd" clip-rule="evenodd" fill="#FFAB0F" d="M87.5,26.25c12.4-0.133,24.35,3.4,35.85,10.6
			c12.834,7.9,21.75,18.133,26.75,30.7c0.534,1.267,1.017,2.567,1.45,3.9c0.601,1.533,1.05,3.117,1.351,4.75
			c0.6,2.033,1.017,4.133,1.25,6.3c0.533,3.067,0.783,6.067,0.75,9c0.033,0.333,0.033,0.684,0,1.05
			c0.066,15.367-5.867,28.5-17.801,39.4c-1.681,1.539-3.414,2.965-5.199,4.274c-9.281,5.579-19.781,8.271-31.5,8.075
			c-2.067-0.066-4.217-0.217-6.45-0.45c-16.3-1.933-30.284-8.783-41.95-20.55c-10.467-10.8-16.533-23.283-18.2-37.45
			c-0.133-1.667-0.25-3.217-0.35-4.65c-0.167-4.633,0.183-9.117,1.05-13.45c1.433-7.1,4.283-13.783,8.55-20.05
			c3.592-5.182,7.783-9.557,12.575-13.125c5.401-3.209,11.459-5.534,18.175-6.975C78.533,26.6,83.1,26.15,87.5,26.25z"/>
	</g>
</g>
<g id="元件_4">
	<g>
		<radialGradient id="SVGID_1_" cx="85.75" cy="93" r="73.6101" gradientUnits="userSpaceOnUse">
			<stop  offset="0.7686" style="stop-color:#FFAB0F;stop-opacity:0"/>
			<stop  offset="0.8431" style="stop-color:#EC8608"/>
		</radialGradient>
		<path fill-rule="evenodd" clip-rule="evenodd" fill="url(#SVGID_1_)" d="M87.5,26.25c12.4-0.133,24.35,3.4,35.85,10.6
			c12.834,7.9,21.75,18.133,26.75,30.7c0.534,1.267,1.017,2.567,1.45,3.9c0.601,1.533,1.05,3.117,1.351,4.75
			c0.6,2.033,1.017,4.133,1.25,6.3c0.533,3.067,0.783,6.067,0.75,9c0.033,0.333,0.033,0.684,0,1.05
			c0.063,14.732-5.387,27.415-16.351,38.05c-9.008,6.441-19.824,9.675-32.45,9.7c-17.881,0.001-33.672-6.332-47.375-19
			C44.846,108.419,37.721,93.402,37.35,76.25c-0.405-16.63,5.628-30.021,18.1-40.175c2.396-1.95,4.888-3.667,7.475-5.15
			c3.414-1.393,7.039-2.501,10.875-3.325C78.533,26.6,83.1,26.15,87.5,26.25z"/>
		<linearGradient id="SVGID_2_" gradientUnits="userSpaceOnUse" x1="38.4478" y1="105.668" x2="155.8278" y2="64.3823">
			<stop  offset="0" style="stop-color:#FFCC00"/>
			<stop  offset="0.0588" style="stop-color:#FFFF33"/>
			<stop  offset="0.1373" style="stop-color:#FFFF7A"/>
			<stop  offset="0.2157" style="stop-color:#FFFFCC"/>
			<stop  offset="0.3137" style="stop-color:#FDF7B8"/>
			<stop  offset="0.3804" style="stop-color:#F6DE7C"/>
			<stop  offset="0.4431" style="stop-color:#F6DF80"/>
			<stop  offset="0.5373" style="stop-color:#F9E8A3"/>
			<stop  offset="0.6353" style="stop-color:#FAEAAB"/>
			<stop  offset="0.7451" style="stop-color:#EDC501"/>
			<stop  offset="0.8392" style="stop-color:#EFC90C"/>
			<stop  offset="0.8902" style="stop-color:#FCE349"/>
		</linearGradient>
		<path fill-rule="evenodd" clip-rule="evenodd" fill="url(#SVGID_2_)" d="M87.5,26.25c-4.4-0.1-8.967,0.35-13.7,1.35
			c-3.836,0.823-7.461,1.932-10.875,3.325c-2.587,1.484-5.079,3.201-7.475,5.15C42.979,46.229,36.945,59.62,37.35,76.25
			c0.371,17.152,7.496,32.169,21.375,45.05c13.702,12.668,29.494,19.001,47.375,19c12.626-0.025,23.442-3.259,32.45-9.7
			c10.964-10.635,16.414-23.317,16.351-38.05c0.033-0.366,0.033-0.717,0-1.05c0.033-2.933-0.217-5.933-0.75-9
			c-0.233-2.167-0.65-4.267-1.25-6.3c-0.301-1.633-0.75-3.217-1.351-4.75c-0.434-1.333-0.916-2.633-1.45-3.9
			c-5-12.566-13.916-22.8-26.75-30.7C111.85,29.65,99.9,26.117,87.5,26.25z M144.325,145.6c-0.375,0.252-0.75,0.502-1.125,0.75
			c-10.7,7.101-23.434,10.784-38.2,11.051c-22.233,0.267-41.8-7.434-58.7-23.101c-16.167-15.333-24.617-33.366-25.35-54.1
			c-0.1-4.2,0.117-8.233,0.65-12.1c1.018-7.032,3.093-13.565,6.225-19.6c0.525-1.009,1.084-2,1.675-2.975
			C32.618,40.281,36.585,35.439,41.4,31c0.25-0.229,0.492-0.454,0.725-0.675c0.146-0.125,0.287-0.25,0.425-0.375
			c13.267-11.767,29.434-17.383,48.5-16.85c19.467,0.267,36.834,6.816,52.101,19.65c10.966,9,18.833,19.483,23.6,31.45
			c2.134,5.267,3.65,10.833,4.55,16.7c0.667,3.434,1,6.8,1,10.1c0.634,15.8-4.25,29.9-14.649,42.3
			c-3.924,4.709-8.241,8.717-12.95,12.025L144.325,145.6z"/>
		<linearGradient id="SVGID_3_" gradientUnits="userSpaceOnUse" x1="103.0381" y1="160.2354" x2="22.2676" y2="60.7817">
			<stop  offset="0.149" style="stop-color:#FFCC00"/>
			<stop  offset="0.2824" style="stop-color:#FFFF00"/>
			<stop  offset="0.4039" style="stop-color:#FF9900"/>
			<stop  offset="0.4902" style="stop-color:#C27C07"/>
			<stop  offset="0.5765" style="stop-color:#AE6809"/>
			<stop  offset="0.6667" style="stop-color:#D68A0C"/>
			<stop  offset="0.7686" style="stop-color:#FFCC00"/>
			<stop  offset="1" style="stop-color:#FDB934"/>
		</linearGradient>
		<path fill-rule="evenodd" clip-rule="evenodd" fill="url(#SVGID_3_)" d="M144.325,145.6l-6.476,4.676
			c-0.536,0.413-1.077,0.822-1.625,1.225c-12.87,9.38-27.979,13.913-45.324,13.6c-20.934-0.433-39.083-7.933-54.45-22.5
			c-13.53-12.938-21.364-28.138-23.5-45.6c-0.022-0.177-0.047-0.352-0.075-0.525l-0.15-1.524c-0.436-5.71,0.181-12.561,1.85-20.55
			l0.125-0.625c0.653-2.725,1.587-5.225,2.8-7.5L27.825,48.5c-3.132,6.035-5.207,12.568-6.225,19.6c-0.533,3.867-0.75,7.9-0.65,12.1
			c0.733,20.733,9.183,38.767,25.35,54.1c16.9,15.667,36.467,23.367,58.7,23.101c14.767-0.267,27.5-3.95,38.2-11.051
			C143.575,146.102,143.95,145.852,144.325,145.6z"/>
	</g>
</g>
<g id="圖層_7">
	<g>
		<path fill-rule="evenodd" clip-rule="evenodd" fill="#AF5118" d="M87.5,26.25c-4.4-0.1-8.967,0.35-13.7,1.35
			c-0.301,0.064-3.918,1.181-10.85,3.35c3.603-2.402,6.919-4.052,9.95-4.95c1.75-0.536,3.55-1.003,5.4-1.4
			c4.733-1,9.3-1.45,13.7-1.35c12.4-0.133,24.35,3.4,35.85,10.6c12.834,7.9,21.75,18.133,26.75,30.7
			c0.534,1.267,1.017,2.567,1.45,3.9c0.601,1.533,1.05,3.117,1.351,4.75c0.274,0.931,0.508,1.873,0.699,2.825
			c0.24,1.143,0.424,2.301,0.551,3.475c0.533,3.067,0.783,6.067,0.75,9c0.033,0.333,0.033,0.683,0,1.05
			c0.039,9.173-2.061,17.548-6.301,25.125c-2.759,4.949-6.426,9.557-11,13.825l-3.55,2.1c10.96-11.592,16.41-24.275,16.351-38.05
			c0.033-0.366,0.033-0.717,0-1.05c0.033-2.933-0.217-5.933-0.75-9c-0.233-2.167-0.65-4.267-1.25-6.3
			c-0.301-1.633-0.75-3.217-1.351-4.75c-0.434-1.333-0.916-2.633-1.45-3.9c-5-12.566-13.916-22.8-26.75-30.7
			C111.85,29.65,99.9,26.117,87.5,26.25z"/>
	</g>
</g>
<g id="圖層_2">
	<g>
		<g>
			<path fill-rule="evenodd" clip-rule="evenodd" fill="#FFFFFF" fill-opacity="0.6235" d="M146.65,140.85
				c-0.067,0.2-0.184,0.384-0.351,0.551c-4.399,4.066-10.033,7.033-16.899,8.899c-0.2,0.066-0.384,0.066-0.551,0
				c-0.199-0.066-0.366-0.149-0.5-0.25c-0.133-0.133-0.216-0.3-0.25-0.5l-1.8-7.6c-0.066-0.267-0.033-0.5,0.101-0.7
				c0.1-0.233,0.283-0.4,0.55-0.5c5.434-2.3,10.267-5.366,14.5-9.2c0.166-0.2,0.366-0.3,0.6-0.3c0.2-0.033,0.4,0.017,0.601,0.15
				c0.199,0.133,0.35,0.3,0.449,0.5l3.45,8.35C146.65,140.45,146.684,140.65,146.65,140.85z M146.15,141.25
				c0.1-0.134,0.183-0.283,0.25-0.45c0.033-0.166,0.017-0.333-0.051-0.5l-3.449-8.35c-0.101-0.134-0.217-0.25-0.351-0.351
				c-0.166-0.1-0.333-0.133-0.5-0.1c-0.166,0.033-0.316,0.1-0.45,0.2c-4.233,3.899-9.1,7-14.6,9.3c-0.167,0.066-0.3,0.184-0.4,0.35
				c-0.066,0.167-0.066,0.351,0,0.551l1.75,7.6c0.034,0.134,0.101,0.267,0.2,0.4c0.101,0.066,0.217,0.133,0.351,0.199
				c0.133,0.034,0.267,0.034,0.399,0C136.134,148.2,141.75,145.25,146.15,141.25z"/>
			<path fill-rule="evenodd" clip-rule="evenodd" fill="#FFFFFF" fill-opacity="0.749" d="M145.95,141
				c0.1-0.066,0.166-0.15,0.2-0.25c0-0.134-0.017-0.233-0.051-0.3l-3.5-8.351c-0.033-0.133-0.1-0.216-0.199-0.25
				c-0.101-0.066-0.2-0.1-0.301-0.1c-0.133,0-0.233,0.05-0.3,0.15c-4.267,3.899-9.149,7.017-14.649,9.35
				c-0.134,0.033-0.217,0.116-0.25,0.25c-0.101,0.066-0.117,0.184-0.051,0.35l1.75,7.601c0,0.066,0.051,0.149,0.15,0.25
				c0.066,0.066,0.134,0.116,0.2,0.149c0.1,0,0.2,0,0.3,0C136.017,147.95,141.583,145,145.95,141z M146.15,141.25
				c-4.4,4-10.017,6.95-16.851,8.85c-0.133,0.034-0.267,0.034-0.399,0c-0.134-0.066-0.25-0.133-0.351-0.199
				c-0.1-0.134-0.166-0.267-0.2-0.4l-1.75-7.6c-0.066-0.2-0.066-0.384,0-0.551c0.101-0.166,0.233-0.283,0.4-0.35
				c5.5-2.3,10.366-5.4,14.6-9.3c0.134-0.101,0.284-0.167,0.45-0.2c0.167-0.033,0.334,0,0.5,0.1c0.134,0.101,0.25,0.217,0.351,0.351
				l3.449,8.35c0.067,0.167,0.084,0.334,0.051,0.5C146.333,140.967,146.25,141.116,146.15,141.25z"/>
			<path fill-rule="evenodd" clip-rule="evenodd" fill="#FFFFFF" fill-opacity="0.498" d="M146.65,140.85
				c0.033-0.199,0-0.399-0.101-0.6l-3.45-8.35c-0.1-0.2-0.25-0.367-0.449-0.5c-0.2-0.134-0.4-0.184-0.601-0.15
				c-0.233,0-0.434,0.1-0.6,0.3c-4.233,3.834-9.066,6.9-14.5,9.2c-0.267,0.1-0.45,0.267-0.55,0.5c-0.134,0.2-0.167,0.434-0.101,0.7
				l1.8,7.6c0.034,0.2,0.117,0.367,0.25,0.5c0.134,0.101,0.301,0.184,0.5,0.25c0.167,0.066,0.351,0.066,0.551,0
				c6.866-1.866,12.5-4.833,16.899-8.899C146.467,141.233,146.583,141.05,146.65,140.85z M146.9,140.9
				c-0.067,0.267-0.184,0.483-0.351,0.649c-4.467,4.101-10.166,7.101-17.1,9c-0.233,0.066-0.467,0.066-0.7,0
				c-0.233-0.033-0.417-0.149-0.55-0.35c-0.167-0.167-0.283-0.367-0.351-0.601l-1.8-7.6c-0.066-0.3-0.017-0.583,0.15-0.85
				c0.1-0.301,0.316-0.5,0.649-0.601c5.4-2.3,10.2-5.383,14.4-9.25c0.2-0.2,0.45-0.316,0.75-0.35s0.583,0.033,0.85,0.2
				c0.233,0.133,0.4,0.35,0.5,0.649l3.5,8.351C146.917,140.384,146.934,140.634,146.9,140.9z"/>
			<path fill-rule="evenodd" clip-rule="evenodd" fill="#FFFFFF" fill-opacity="0.8745" d="M145.8,140.85
				c0.033-0.066,0.066-0.116,0.101-0.149v-0.15l-3.5-8.35c-0.034-0.066-0.084-0.117-0.15-0.15c-0.033-0.033-0.066-0.05-0.1-0.05
				c-0.067,0-0.134,0.033-0.2,0.1c-4.267,3.9-9.167,7.034-14.7,9.4c-0.1,0-0.15,0.033-0.15,0.1c-0.066,0.034-0.083,0.101-0.05,0.2
				l1.8,7.601c0,0.033,0.017,0.066,0.051,0.1c0.033,0.033,0.083,0.05,0.149,0.05c0.033,0,0.084,0,0.15,0
				C135.9,147.717,141.434,144.816,145.8,140.85z M145.95,141c-4.367,4-9.934,6.95-16.7,8.85c-0.1,0-0.2,0-0.3,0
				c-0.066-0.033-0.134-0.083-0.2-0.149c-0.1-0.101-0.15-0.184-0.15-0.25l-1.75-7.601c-0.066-0.166-0.05-0.283,0.051-0.35
				c0.033-0.134,0.116-0.217,0.25-0.25c5.5-2.333,10.383-5.45,14.649-9.35c0.066-0.101,0.167-0.15,0.3-0.15
				c0.101,0,0.2,0.033,0.301,0.1c0.1,0.034,0.166,0.117,0.199,0.25l3.5,8.351c0.034,0.066,0.051,0.166,0.051,0.3
				C146.116,140.85,146.05,140.934,145.95,141z"/>
			<path fill-rule="evenodd" clip-rule="evenodd" fill="#FFFFFF" d="M145.8,140.85c-4.366,3.967-9.899,6.867-16.6,8.7
				c-0.066,0-0.117,0-0.15,0c-0.066,0-0.116-0.017-0.149-0.05c-0.034-0.033-0.051-0.066-0.051-0.1l-1.8-7.601
				c-0.033-0.1-0.017-0.166,0.05-0.2c0-0.066,0.051-0.1,0.15-0.1c5.533-2.366,10.434-5.5,14.7-9.4c0.066-0.066,0.133-0.1,0.2-0.1
				c0.033,0,0.066,0.017,0.1,0.05c0.066,0.033,0.116,0.084,0.15,0.15l3.5,8.35v0.15C145.866,140.733,145.833,140.783,145.8,140.85z"
				/>
			<path fill-rule="evenodd" clip-rule="evenodd" fill="#FFFFFF" fill-opacity="0.3725" d="M147.15,140.95
				c-0.067,0.333-0.217,0.616-0.45,0.85c-4.5,4.066-10.217,7.084-17.15,9.05c-0.3,0.034-0.583,0.034-0.85,0
				c-0.3-0.1-0.55-0.25-0.75-0.449c-0.2-0.2-0.316-0.45-0.351-0.75l-1.8-7.601c-0.1-0.366-0.05-0.717,0.15-1.05
				c0.166-0.333,0.416-0.583,0.75-0.75c5.434-2.267,10.233-5.3,14.399-9.1c0.267-0.267,0.567-0.417,0.9-0.45s0.65,0.033,0.95,0.2
				c0.3,0.199,0.5,0.449,0.6,0.75l3.5,8.35C147.15,140.3,147.184,140.616,147.15,140.95z M146.9,140.9
				c0.033-0.267,0.017-0.517-0.051-0.75l-3.5-8.351c-0.1-0.3-0.267-0.517-0.5-0.649c-0.267-0.167-0.55-0.233-0.85-0.2
				s-0.55,0.149-0.75,0.35c-4.2,3.867-9,6.95-14.4,9.25c-0.333,0.101-0.55,0.3-0.649,0.601c-0.167,0.267-0.217,0.55-0.15,0.85
				l1.8,7.6c0.067,0.233,0.184,0.434,0.351,0.601c0.133,0.2,0.316,0.316,0.55,0.35c0.233,0.066,0.467,0.066,0.7,0
				c6.934-1.899,12.633-4.899,17.1-9C146.717,141.384,146.833,141.167,146.9,140.9z"/>
			<path fill-rule="evenodd" clip-rule="evenodd" fill="#FFFFFF" fill-opacity="0.2471" d="M147.4,141
				c-0.101,0.366-0.267,0.684-0.5,0.95c-4.534,4.166-10.301,7.217-17.301,9.149c-0.333,0.067-0.666,0.067-1,0
				c-0.3-0.133-0.566-0.316-0.8-0.55s-0.399-0.5-0.5-0.8l-1.75-7.6c-0.133-0.434-0.083-0.851,0.15-1.25
				c0.166-0.434,0.467-0.717,0.899-0.851c5.367-2.3,10.134-5.35,14.301-9.149c0.3-0.233,0.649-0.384,1.05-0.45
				c0.399-0.033,0.783,0.05,1.149,0.25c0.334,0.2,0.584,0.5,0.75,0.899l3.45,8.301C147.467,140.267,147.5,140.634,147.4,141z
				 M147.15,140.95c0.033-0.334,0-0.65-0.101-0.95l-3.5-8.35c-0.1-0.301-0.3-0.551-0.6-0.75c-0.3-0.167-0.617-0.233-0.95-0.2
				s-0.634,0.184-0.9,0.45c-4.166,3.8-8.966,6.833-14.399,9.1c-0.334,0.167-0.584,0.417-0.75,0.75c-0.2,0.333-0.25,0.684-0.15,1.05
				l1.8,7.601c0.034,0.3,0.15,0.55,0.351,0.75c0.2,0.199,0.45,0.35,0.75,0.449c0.267,0.034,0.55,0.034,0.85,0
				c6.934-1.966,12.65-4.983,17.15-9.05C146.934,141.566,147.083,141.283,147.15,140.95z"/>
			<path fill-rule="evenodd" clip-rule="evenodd" fill="#FFFFFF" fill-opacity="0.1216" d="M147.65,141.1
				c-0.067,0.4-0.267,0.767-0.601,1.101c-4.533,4.133-10.333,7.184-17.399,9.149c-0.367,0.101-0.717,0.101-1.051,0
				c-0.399-0.1-0.733-0.283-1-0.55c-0.267-0.3-0.433-0.633-0.5-1l-1.8-7.6c-0.133-0.5-0.083-0.967,0.15-1.4
				c0.233-0.467,0.6-0.8,1.1-1c5.334-2.267,10.066-5.283,14.2-9.05c0.333-0.333,0.717-0.517,1.15-0.55
				c0.466-0.033,0.916,0.066,1.35,0.3c0.366,0.233,0.65,0.566,0.85,1l3.45,8.35C147.717,140.25,147.75,140.667,147.65,141.1z
				 M147.4,141c0.1-0.366,0.066-0.733-0.101-1.1l-3.45-8.301c-0.166-0.399-0.416-0.699-0.75-0.899c-0.366-0.2-0.75-0.283-1.149-0.25
				c-0.4,0.066-0.75,0.217-1.05,0.45c-4.167,3.8-8.934,6.85-14.301,9.149c-0.433,0.134-0.733,0.417-0.899,0.851
				c-0.233,0.399-0.283,0.816-0.15,1.25l1.75,7.6c0.101,0.3,0.267,0.566,0.5,0.8s0.5,0.417,0.8,0.55c0.334,0.067,0.667,0.067,1,0
				c7-1.933,12.767-4.983,17.301-9.149C147.134,141.684,147.3,141.366,147.4,141z"/>
		</g>
	</g>
</g>
<g id="圖層_4">
	<g>
		<path fill-rule="evenodd" clip-rule="evenodd" fill="#B87C0E" d="M60,85.75l-0.6,1.4l-2.25,0.1l2.55-4.75L71.15,82l-3.2,4.65H66.3
			l-0.15-0.9H60z M59.7,78.7l-1.65,3.85l-13.8-2.9l1.2-4.45L59.7,78.7z M60.35,93.1l6.75-0.149l-1.7,3h-4.85l-0.6,1l-2.3,0.1
			L60.35,93.1z M61.7,114.6l8.6-0.399l-3.2,3.45l-9.5,0.199L61.7,114.6z M101.55,119.1L114,118.65l16.7-17.25l-2.9,7l-15.35,14.8
			l-14,0.55L101.55,119.1z"/>
		<path fill-rule="evenodd" clip-rule="evenodd" fill="#AF5118" d="M67.95,86.65l3.2-4.65l4,21.6l-4.1,3.75L67.95,86.65z M59.7,82.5
			l-2.55,4.75l0.9-4.7l1.65-3.85V82.5z M59.4,87.15l0.6-1.4l0.35,7.35l-2.7,3.95l0.35-7L59.4,87.15z M59.95,96.95l0.6-1L61.7,114.6
			l-4.1,3.25l0.55-17.899L59.95,96.95z"/>
		<path fill-rule="evenodd" clip-rule="evenodd" fill="#C6691E" d="M75.15,103.6c9.4,4.934,18.2,10.101,26.4,15.5l-3.1,4.65
			l-27.4-16.4L75.15,103.6z"/>
	</g>
</g>
<g id="圖層_3">
	<g>
		<radialGradient id="SVGID_4_" cx="96.6504" cy="98.7002" r="57.9625" gradientUnits="userSpaceOnUse">
			<stop  offset="0.0902" style="stop-color:#FFFF7B"/>
			<stop  offset="0.4392" style="stop-color:#FFFF4F"/>
			<stop  offset="0.7922" style="stop-color:#FCE349"/>
			<stop  offset="0.9569" style="stop-color:#FCDE32"/>
		</radialGradient>
		<path fill-rule="evenodd" clip-rule="evenodd" fill="url(#SVGID_4_)" d="M147,70.1l-17.15,8.35l0.101,5.5l0.75,17.45L114,118.65
			l-12.45,0.449c-8.2-5.399-17-10.566-26.4-15.5l-4-21.6L59.7,82.5v-3.8l-14.25-3.5l51.2-35.4l50.399,30.3H147z"/>
		<radialGradient id="SVGID_5_" cx="63.2002" cy="113.0996" r="18.075" gradientUnits="userSpaceOnUse">
			<stop  offset="0.0902" style="stop-color:#FFFF7B"/>
			<stop  offset="0.4392" style="stop-color:#FFFF4F"/>
			<stop  offset="0.7922" style="stop-color:#FCE349"/>
			<stop  offset="0.9569" style="stop-color:#FCDE32"/>
		</radialGradient>
		<polygon fill-rule="evenodd" clip-rule="evenodd" fill="url(#SVGID_5_)" points="60.55,95.95 67.5,95.95 70.3,114.2 61.7,114.6 		
			"/>
		<radialGradient id="SVGID_6_" cx="62.7998" cy="91.25" r="6.8" gradientUnits="userSpaceOnUse">
			<stop  offset="0.0902" style="stop-color:#FFFF7B"/>
			<stop  offset="0.4392" style="stop-color:#FFFF4F"/>
			<stop  offset="0.7922" style="stop-color:#FCE349"/>
			<stop  offset="0.9569" style="stop-color:#FCDE32"/>
		</radialGradient>
		<polygon fill-rule="evenodd" clip-rule="evenodd" fill="url(#SVGID_6_)" points="66.15,85.75 67.1,92.95 60.35,93.1 60,85.75 		
			"/>
		<polygon fill-rule="evenodd" clip-rule="evenodd" fill="#B87C0E" points="129.95,83.95 129.85,78.45 147,70.1 145.3,75.85 		"/>
	</g>
</g>
<g id="圖層_1">
	<g>
		<path fill-rule="evenodd" clip-rule="evenodd" fill="#FFFFFF" d="M138.725,148.9c0.301-0.113,0.601-0.229,0.9-0.351
			c-0.414,0.236-0.831,0.47-1.25,0.7c-9.64,5.206-20.765,7.922-33.375,8.15c-22.233,0.267-41.8-7.434-58.7-23.101
			c-16.167-15.333-24.617-33.366-25.35-54.1c-0.1-4.2,0.117-8.233,0.65-12.1c1.018-7.032,3.102-13.565,6.25-19.6
			c-2.243,7.764-3.66,15.172-4.25,22.225c-1.038,16.771,3.329,32.045,13.1,45.825c12.907,16.497,28.34,27.88,46.3,34.15
			c18.885,5.577,37.485,4.96,55.8-1.851L138.725,148.9z"/>
	</g>
</g>
</svg>
