<?xml version="1.0" encoding="utf-8"?>
<!-- Generator: Adobe Illustrator 15.1.0, SVG Export Plug-In . SVG Version: 6.00 Build 0)  -->
<!DOCTYPE svg PUBLIC "-//W3C//DTD SVG 1.1//EN" "http://www.w3.org/Graphics/SVG/1.1/DTD/svg11.dtd">
<svg version="1.1" id="圖層_1" xmlns="http://www.w3.org/2000/svg" xmlns:xlink="http://www.w3.org/1999/xlink" x="0px" y="0px"
	 width="180px" height="177px" viewBox="0 0 180 177" enable-background="new 0 0 180 177" xml:space="preserve">
<g id="圖層_5">
	<g>
		<polygon fill="#66FBFF" points="174.901,116.211 141.984,164.442 73.807,164.711 16.058,120.289 8.837,54.178 45.298,13.188 
			109.432,15.987 162.793,55.652 		"/>
	</g>
</g>
<g id="圖層_4">
	<g>
		<path fill="#1A4499" d="M141.984,164.442l-8.67-46.164l21.364-26.391l20.223,24.323L141.984,164.442z M45.298,13.188l64.133,2.8
			l4.29,14.372l-37.948-1.984L45.298,13.188z M8.837,54.178l44.994,2.982l8.704,37.688l-46.477,25.441L8.837,54.178z"/>
		<path fill="#171872" d="M133.314,118.278l8.67,46.164l-68.177,0.269l21.428-46.36L133.314,118.278z M113.722,30.359l-4.29-14.372
			l53.361,39.665l-13.349,0.555L113.722,30.359z"/>
		<polygon fill="#0091FB" points="133.314,118.278 95.233,118.352 62.534,94.848 53.831,57.16 75.773,28.375 113.722,30.359 
			149.444,56.207 154.679,91.888 		"/>
		<path fill="#1164AF" d="M95.233,118.352l-21.427,46.359l-57.749-44.422l46.477-25.441L95.233,118.352z M8.837,54.178l36.461-40.99
			l30.475,15.188L53.831,57.16L8.837,54.178z"/>
	</g>
</g>
<g id="_xEFF5__xEED3__x5F_2">
	<g>
		<path fill="#3333FF" d="M124.778,54.361l38.015,1.291L136.391,77.02L124.778,54.361z M67.359,57.813L45.298,13.188l46.304,30.729
			L67.359,57.813z M78.079,114.886l-62.021,5.403l42.599-32.457L78.079,114.886z"/>
		<path fill="#10104E" d="M102.209,83.616l11.881,38.824l-36.012-7.556L102.209,83.616l22.569-29.255l11.612,22.659L102.209,83.616z
			 M124.778,54.361L91.603,43.917l17.829-27.93L124.778,54.361z"/>
		<polygon fill="#0000EA" points="91.603,43.917 124.778,54.361 102.209,83.616 78.079,114.886 58.656,87.832 67.359,57.813 		"/>
		<path fill="#1E1E91" d="M136.391,77.02l38.511,39.191l-41.292-11.752l-19.52,17.981l-11.881-38.824L136.391,77.02z M58.656,87.832
			L8.837,54.178l58.523,3.634L58.656,87.832z"/>
		<polygon fill="#0000FF" points="133.609,104.459 141.984,164.442 114.09,122.44 73.807,164.711 78.079,114.886 114.09,122.44 		
			"/>
	</g>
</g>
<g id="圖層_6">
	<g>
		
			<linearGradient id="SVGID_1_" gradientUnits="userSpaceOnUse" x1="382.1768" y1="-146.3062" x2="395.4442" y2="-81.2546" gradientTransform="matrix(0.895 0.446 0.446 -0.895 -193.2483 -200.7592)">
			<stop  offset="0" style="stop-color:#6FFFFF;stop-opacity:0"/>
			<stop  offset="1" style="stop-color:#FFFFFF"/>
		</linearGradient>
		<polygon fill="url(#SVGID_1_)" points="95.233,118.352 62.534,94.848 53.831,57.16 75.773,28.375 113.722,30.359 149.444,56.207 
			154.679,91.888 133.314,118.278 		"/>
		
			<linearGradient id="SVGID_2_" gradientUnits="userSpaceOnUse" x1="333.1426" y1="-176.0757" x2="404.4425" y2="-180.7442" gradientTransform="matrix(0.895 0.446 0.446 -0.895 -193.2483 -200.7592)">
			<stop  offset="0" style="stop-color:#6FFFFF;stop-opacity:0"/>
			<stop  offset="1" style="stop-color:#FFFFFF;stop-opacity:0.7608"/>
		</linearGradient>
		<polygon fill="url(#SVGID_2_)" points="95.233,118.352 73.807,164.711 16.058,120.289 62.534,94.848 		"/>
		
			<linearGradient id="SVGID_3_" gradientUnits="userSpaceOnUse" x1="309.3008" y1="-167.9536" x2="353.2094" y2="-141.7411" gradientTransform="matrix(0.895 0.446 0.446 -0.895 -193.2483 -200.7592)">
			<stop  offset="0" style="stop-color:#6FFFFF;stop-opacity:0"/>
			<stop  offset="1" style="stop-color:#FFFFFF;stop-opacity:0.6706"/>
		</linearGradient>
		<polygon fill="url(#SVGID_3_)" points="62.534,94.848 16.058,120.289 8.837,54.178 53.831,57.16 		"/>
	</g>
</g>
<g id="圖層_8">
	<g>
		<path fill="#33E6FF" d="M149.444,56.207l-5.462-3.951l18.812,3.396L149.444,56.207z M57.767,57.445l-3.936-0.285l3.549-4.656
			l18.327-24.051l2.674,1.751L57.767,57.445z"/>
		<path fill="#66FBFF" d="M131.834,114.747l19.845-25.248l3,2.389l-21.364,26.391L131.834,114.747z M61.725,91.316L53.831,57.16
			l3.936,0.285l8.029,35.454l-3.261,1.949L61.725,91.316z"/>
		<polygon fill="#33FFFF" points="126.852,118.299 100.88,118.344 95.233,118.352 96.728,114.905 131.834,114.747 133.314,118.278 
					"/>
		<polygon fill="#1CC0FF" points="133.314,118.278 141.984,164.442 126.852,118.299 		"/>
		<path fill="#0060FF" d="M109.093,30.064l0.339-14.077l4.29,14.372L109.093,30.064z M75.773,28.375L45.298,13.188l39.062,15.78
			L75.773,28.375z M53.831,57.16L8.837,54.178l48.543-1.674L53.831,57.16z"/>
		<path fill="#FFFFCC" d="M95.233,118.352L62.534,94.848l3.261-1.949l30.932,22.007L95.233,118.352z M62.534,94.848l-46.477,25.441
			l45.667-28.973L62.534,94.848z"/>
		<polygon fill="#3333CC" points="100.88,118.344 73.807,164.711 74.52,163.168 74.832,162.484 95.233,118.352 		"/>
		<path fill="none" stroke="#66FF00" stroke-width="0.1" stroke-linecap="round" stroke-linejoin="round" stroke-miterlimit="3" d="
			M74.52,163.168l0.312-0.684 M74.52,163.168l-1.382,2.773"/>
	</g>
</g>
<g id="圖層_3">
	<g>
		
			<linearGradient id="SVGID_4_" gradientUnits="userSpaceOnUse" x1="432.1826" y1="-90.4126" x2="444.5865" y2="-88.8119" gradientTransform="matrix(0.895 0.446 0.446 -0.895 -193.2483 -200.7592)">
			<stop  offset="0" style="stop-color:#FFFFFF;stop-opacity:0.2706"/>
			<stop  offset="1" style="stop-color:#FFFFFF"/>
		</linearGradient>
		<polygon fill="url(#SVGID_4_)" points="152.176,75.835 151.742,69.307 166.148,74.14 167.007,80.042 		"/>
		
			<linearGradient id="SVGID_5_" gradientUnits="userSpaceOnUse" x1="394.3994" y1="-88.6597" x2="398.0526" y2="-75.035" gradientTransform="matrix(0.895 0.446 0.446 -0.895 -193.2483 -200.7592)">
			<stop  offset="0" style="stop-color:#FFFFFF;stop-opacity:0.2706"/>
			<stop  offset="1" style="stop-color:#FFFFFF"/>
		</linearGradient>
		<polygon fill="url(#SVGID_5_)" points="151.742,69.307 152.176,75.835 154.679,91.888 75.773,28.375 113.722,30.359 
			149.444,56.207 		"/>
	</g>
</g>
</svg>
